<?xml version="1.0" standalone="no"?>
<!DOCTYPE svg PUBLIC "-//W3C//DTD SVG 1.1//EN" "http://www.w3.org/Graphics/SVG/1.1/DTD/svg11.dtd" >
<svg xmlns="http://www.w3.org/2000/svg">
<metadata></metadata>
<defs>
<font id="accidental_presidencyregular" horiz-adv-x="802" >
<font-face units-per-em="2048" ascent="1638" descent="-410" />
<missing-glyph horiz-adv-x="393" />
<glyph horiz-adv-x="2048" />
<glyph horiz-adv-x="2048" />
<glyph unicode="&#xd;" horiz-adv-x="393" />
<glyph unicode=" "  horiz-adv-x="393" />
<glyph unicode="&#x09;" horiz-adv-x="393" />
<glyph unicode="&#xa0;" horiz-adv-x="393" />
<glyph unicode="!" horiz-adv-x="354" d="M70 223h213l2 -223h-213zM70 406v925l213 -2v-923h-213z" />
<glyph unicode="&#x22;" horiz-adv-x="651" d="M74 1331l192 -2l2 -555h-192zM381 1331l192 -2l2 -555h-192z" />
<glyph unicode="#" horiz-adv-x="1449" d="M20 324v192h277l94 303h-244v193h306l98 319l192 -2l-98 -317l320 2l98 317l192 -2l-98 -315h260l-2 -193h-317l-94 -303h286l-2 -192h-346l-100 -326h-193l101 326l-320 -2l-100 -324h-193l101 324h-218zM489 516l320 2l96 303l-321 -2z" />
<glyph unicode="$" horiz-adv-x="772" d="M53 332v88h205q-2 -168 86 -205v363q-117 14 -203 100t-86 203v127q0 121 83 210t204 97v158l113 -3v-157q115 -14 191.5 -101.5t76.5 -203.5v-88h-205q0 156 -63 194v-356q111 -20 188.5 -104.5t77.5 -194.5v-127q0 -115 -75 -202t-189 -103v-131h-113v129 q-123 6 -207 95t-84 212zM260 956q0 -147 82 -182v354q-82 -18 -82 -172zM457 219q59 31 59 164q0 123 -59 170v-334z" />
<glyph unicode="%" horiz-adv-x="1181" d="M51 877v245q0 106 72 162q66 51 174 51q88 0 148.5 -62.5t60.5 -150.5v-245q0 -104 -68.5 -158.5t-175.5 -54.5q-88 0 -149.5 62t-61.5 151zM141 0l711 1331l170 -2l-709 -1329h-172zM205 913q0 -104 78 -104q71 0 71 104v179q0 104 -78 104q-72 0 -71 -104v-179z M684 213v248q0 102 69.5 157.5t174.5 55.5q86 0 148.5 -63.5t62.5 -149.5v-248q0 -104 -70 -158.5t-176 -54.5q-86 0 -147.5 63.5t-61.5 149.5zM836 250q0 -104 77 -105q72 1 72 105v178q0 104 -78 104q-72 0 -71 -104v-178z" />
<glyph unicode="&#x26;" horiz-adv-x="901" d="M49 289v168q0 59 43 125q39 57 94 92q-53 23 -94 89t-41 126v106q0 127 90 217.5t217 90.5h54q127 0 217 -90.5t90 -217.5v-108h-205q0 111 -14 153q-29 80 -119 80q-125 0 -125 -172q0 -113 34 -151.5t142 -42.5q84 -4 215 -2q186 4 215 4l-2 -162h-145l2 -305 q0 -127 -90 -217t-217 -90h-54q-127 0 -217 90t-90 217zM254 340q0 -176 125 -176q84 0 113 63q18 42 18 138v227q-174 0 -215 -39t-41 -213z" />
<glyph unicode="'" horiz-adv-x="344" d="M74 1331l192 -2l2 -555h-192z" />
<glyph unicode="(" horiz-adv-x="423" d="M49 0v1049q0 127 99.5 217t228.5 90l2 -182q-125 4 -125 -173v-946q0 -174 133 -172l2 -198q-129 0 -234.5 94t-105.5 221z" />
<glyph unicode=")" horiz-adv-x="466" d="M66 -315l2 198q133 -2 133 172v946q0 176 -125 173l2 182q129 0 228.5 -90t99.5 -217v-1049q0 -129 -105.5 -222t-234.5 -93z" />
<glyph unicode="*" horiz-adv-x="794" d="M59 1165l123 144l119 -101v174h188v-176l129 107l121 -144l-194 -163l190 -160l-121 -146l-125 105v-146h-188v144l-117 -98l-121 143l187 158z" />
<glyph unicode="+" horiz-adv-x="882" d="M35 436v189h307v317h188v-317h310v-189h-310v-299h-188v299h-307z" />
<glyph unicode="," horiz-adv-x="436" d="M53 -307l82 534l234 -2l-164 -532h-152z" />
<glyph unicode="-" horiz-adv-x="434" d="M59 436v189h314v-189h-314z" />
<glyph unicode="." horiz-adv-x="385" d="M88 0v227l213 -2v-225h-213z" />
<glyph unicode="/" horiz-adv-x="696" d="M14 -139l459 1470l193 -2l-459 -1468h-193z" />
<glyph unicode="0" horiz-adv-x="798" d="M61 287v700q0 127 90.5 217t217.5 90h53q127 0 217 -90t90 -217v-700q0 -127 -90 -217t-217 -90h-53q-127 0 -217.5 90t-90.5 217zM266 342q0 -172 133 -172q125 0 125 172v598q0 80 -16 117q-27 55 -96 55q-145 0 -146 -172v-598z" />
<glyph unicode="1" horiz-adv-x="589" d="M92 827v250l207 193l213 2l2 -1272h-213v1034z" />
<glyph unicode="2" horiz-adv-x="741" d="M37 129v16v25h2l420 670q51 82 51 145q0 49 -33 88t-82 39q-137 0 -137 -219q0 -25 2 -63.5t2 -53.5h-205v211q0 127 90.5 217t217.5 90h53q117 0 203 -95t86 -214q0 -106 -66 -211l-377 -604h418l2 -170h-645z" />
<glyph unicode="3" horiz-adv-x="790" d="M51 887v108q0 127 90 217.5t217 90.5h54q127 0 217 -90.5t90 -217.5v-106q0 -59 -40 -127t-93 -88q55 -35 95 -95.5t40 -121.5v-168q0 -127 -90 -217t-217 -90h-54q-127 0 -217 90t-90 217v108h205q0 -106 16 -153q29 -80 117 -80q78 0 107 53q20 39 20 123 q0 158 -31.5 194.5t-183.5 36.5l-2 203q131 0 164 21q49 31 49 153q0 172 -125 172q-88 0 -117 -80q-16 -47 -16 -153h-205z" />
<glyph unicode="4" horiz-adv-x="815" d="M41 498l463 776h225l-457 -776h222v219l192 -2v-217h90l-2 -172l-88 2v-328h-194l2 328h-451z" />
<glyph unicode="5" horiz-adv-x="749" d="M43 287v110h205q0 -115 12 -149q25 -78 113 -78q96 0 123 96q12 43 12 172q0 182 -127 183h-330v647h649v-174h-462v-299h143q135 0 232.5 -83t97.5 -216v-209q0 -127 -90.5 -217t-217.5 -90h-53q-127 0 -217 90t-90 217z" />
<glyph unicode="6" horiz-adv-x="788" d="M53 287l4 700q0 127 90.5 217t217.5 90h53q127 0 217 -90t90 -217v-65h-205v10q2 180 -133 180q-125 0 -125 -172l2 -154q37 37 117 37q145 0 242.5 -82t97.5 -225v-229q0 -127 -90 -217t-217 -90h-54q-127 0 -217 90t-90 217zM258 342q0 -172 133 -172q125 0 125 172 v127q0 172 -133 172q-129 0 -119 -127h-4q-2 -20 -2 -45v-127z" />
<glyph unicode="7" horiz-adv-x="714" d="M33 0l416 1079h-398l-2 191h625l2 -170l-412 -1100h-231z" />
<glyph unicode="8" horiz-adv-x="798" d="M57 287v188q0 55 39 119.5t88 93.5q-123 84 -123 316q0 127 90.5 217t217.5 90h53q127 0 217 -90.5t90 -216.5v-107q0 -137 -127 -213q55 -29 89 -87t34 -122v-188q0 -127 -90 -217t-217 -90h-53q-127 0 -217.5 90t-90.5 217zM262 342q0 -172 133 -172q125 0 125 172v86 q0 164 -147 164q-45 0 -80 -62q-31 -53 -31 -102v-86zM266 952q0 -170 107 -170h37q57 0 88 62q26 51 26 112q0 172 -133 172q-125 0 -125 -176z" />
<glyph unicode="9" horiz-adv-x="798" d="M57 299v66h205q-2 -190 133 -191q125 0 125 172v154q-39 -37 -119 -37q-145 0 -239 80q-100 84 -101 227v229q0 127 90.5 217.5t217.5 90.5h53q127 0 217 -90.5t90 -217.5l-4 -700q0 -127 -90 -217t-217 -90h-53q-127 0 -217.5 90t-90.5 217zM266 817q0 -172 133 -172 q96 0 119 113q6 32 6 196q0 162 -133 162q-125 0 -125 -172v-127z" />
<glyph unicode=":" horiz-adv-x="354" d="M72 0v227l213 -2v-225h-213zM72 758v227l213 -2v-225h-213z" />
<glyph unicode=";" horiz-adv-x="385" d="M37 -307l82 534l233 -2l-164 -532h-151zM139 758v227l213 -2v-225h-213z" />
<glyph unicode="&#x3c;" horiz-adv-x="788" d="M63 375l3 219l653 309v-213l-451 -207l451 -213v-213z" />
<glyph unicode="=" horiz-adv-x="876" d="M39 231v189h805v-189h-805zM39 621v188h805v-188h-805z" />
<glyph unicode="&#x3e;" horiz-adv-x="739" d="M41 57v213l451 213l-451 207v213l653 -309l2 -219z" />
<glyph unicode="?" horiz-adv-x="759" d="M37 926v108q0 127 90 217t217 90h53q127 0 217.5 -90t90.5 -217v-350q0 -104 -98.5 -189t-205.5 -85h-110v204q127 0 160 25q41 31 49 164v184q0 82 -21 121q-29 51 -104 51q-88 0 -117 -80q-16 -45 -16 -153h-205zM276 0v223h213v-223h-213z" />
<glyph unicode="@" horiz-adv-x="1212" d="M41 575q0 238 165 403t402 165q240 0 405 -164t165 -404q0 -156 -82 -280q-94 -141 -242 -141q-68 0 -109 32q-47 37 -47 103q-37 -29 -102 -29q-78 0 -146.5 55.5t-68.5 130.5q0 90 65.5 153t155.5 63q55 0 96 -13v19q0 100 -73 100q-57 0 -74 -74h-148q0 104 70 162 q63 53 170 53q84 0 135 -59t51 -145v-420q0 -12 14.5 -29.5t26.5 -17.5q94 0 156 127q53 106 53 210q0 199 -136 335.5t-335 136.5q-197 0 -333 -137.5t-136 -334.5q0 -201 138.5 -336t340.5 -135v-96q-242 0 -409.5 163t-167.5 404zM526 459q0 -31 33 -49q27 -16 59 -17 q31 0 55.5 20.5t24.5 51.5t-24.5 53.5t-55.5 22.5q-33 0 -62.5 -24.5t-29.5 -57.5z" />
<glyph unicode="A" horiz-adv-x="776" d="M43 0l236 1331l219 -2l227 -1329h-213l-49 303h-156l-51 -303h-213zM344 516h86l-43 324z" />
<glyph unicode="B" horiz-adv-x="784" d="M57 0v1333l363 2q127 0 217 -90t90 -217v-168q0 -55 -33 -119q-35 -70 -80 -90q47 -23 80 -82t33 -114v-168q0 -127 -71.5 -207t-196.5 -80h-402zM264 172l133 -2q76 0 105 51q20 39 20 121v80q0 151 -70 151h-1h-187v-401zM264 741q98 -2 103 -2q94 0 127 43 q28 35 28 133v66q0 100 -24 133q-33 41 -136 41h-98v-414z" />
<glyph unicode="C" horiz-adv-x="759" d="M49 287v762q0 127 90 217t217 90h54q127 0 217 -90t90 -217v-211h-205q0 18 2 60t2 63q0 213 -137 213q-125 0 -125 -173v-659q0 -172 133 -172q125 0 125 172v178h205v-233q0 -127 -90 -217t-217 -90h-54q-127 0 -217 90t-90 217z" />
<glyph unicode="D" horiz-adv-x="786" d="M57 0v1333l363 2q127 0 217 -90t90 -217v-741q0 -129 -70.5 -208t-197.5 -79h-402zM264 172l133 -2q76 0 105 51q20 37 20 121v639q0 98 -24 133q-33 41 -133 41h-101v-983z" />
<glyph unicode="E" horiz-adv-x="702" d="M41 1329l623 2l-2 -190h-404l-2 -361l408 2l-2 -190h-408l2 -399l410 -3l-2 -190h-621z" />
<glyph unicode="F" horiz-adv-x="681" d="M39 1329l623 2l-3 -190h-403l-2 -361l408 2l-3 -190h-407v-592h-211z" />
<glyph unicode="G" horiz-adv-x="761" d="M51 287v762q0 127 90 217t217 90h54q127 0 217 -90t90 -217v-211h-205q0 12 2 43v43q0 111 -16 161q-31 88 -119 89q-125 0 -125 -173v-659q0 -172 133 -172q84 0 111 63q14 37 14 138h-141v192l348 2l-2 -278q0 -127 -90 -217t-217 -90h-54q-127 0 -217 90t-90 217z" />
<glyph unicode="H" horiz-adv-x="768" d="M63 0l3 1329h213v-567l196 2l2 565h213l2 -1329h-217v573h-196l2 -573h-218z" />
<glyph unicode="I" horiz-adv-x="362" d="M72 1331l213 -2l2 -1329h-213z" />
<glyph unicode="J" d="M61 287v233h205v-178q0 -172 125 -172q133 0 133 172v977h205v-1032q0 -127 -90 -217t-217 -90h-53q-127 0 -217.5 90t-90.5 217z" />
<glyph unicode="K" horiz-adv-x="772" d="M31 0v1329h213v-385l260 385h233l-467 -661l469 -668h-233l-262 389v-389h-213z" />
<glyph unicode="L" horiz-adv-x="655" d="M31 0l2 1329h209l2 -1136l409 -3l-2 -190h-620z" />
<glyph unicode="M" horiz-adv-x="1144" d="M76 0v1329h227l272 -944l259 944h233v-1329h-213v678l-184 -678h-213l-168 692v-692h-213z" />
<glyph unicode="N" horiz-adv-x="772" d="M61 1329h213l226 -749l2 749h192l2 -1329h-217l-217 725l2 -725h-196z" />
<glyph unicode="O" horiz-adv-x="786" d="M61 287v762q0 127 90.5 217t217.5 90h53q127 0 217 -90t90 -217v-762q0 -127 -90 -217t-217 -90h-53q-127 0 -217.5 90t-90.5 217zM266 342q0 -172 133 -172q125 0 125 172v659q0 80 -16 117q-27 55 -96 56q-145 0 -146 -173v-659z" />
<glyph unicode="P" horiz-adv-x="774" d="M47 0v1354l363 2q127 0 217 -90t90 -217v-353q0 -129 -71 -207.5t-197 -78.5h-189v-410h-213zM258 1176l2 -594l127 -2q76 0 105 51q20 37 20 121v249q0 100 -25 134q-33 41 -135 41h-94z" />
<glyph unicode="Q" horiz-adv-x="856" d="M39 287v762q0 127 90 217t217 90h53q127 0 217.5 -90t90.5 -217v-762q0 -35 -7 -68l115 -110l-149 -152l-86 82q-80 -59 -234 -59q-127 0 -217 90t-90 217zM244 342q0 -172 133 -172q37 0 61 10l-139 137l152 150l51 -51v598q0 160 -113 160q-145 0 -145 -173v-659z" />
<glyph unicode="R" d="M51 0v1333l363 2q127 0 217 -90t90 -217v-229q0 -61 -38 -131t-91 -93q57 -27 98 -81q45 -61 45 -121v-373h-207l2 326q0 119 -81 153q-47 18 -187 19l2 -498h-213zM262 684l129 -2q125 0 125 172v127q0 100 -30.5 137t-131.5 37h-92v-471z" />
<glyph unicode="S" horiz-adv-x="763" d="M51 270v88h205v-6q0 -207 133 -207q78 0 107 58q18 39 18 127q0 225 -130 225t-230.5 88t-100.5 217v189q0 127 90 217t217 90h54q127 0 217 -90t90 -217v-88h-205q0 98 -18 143q-31 70 -115 70q-125 0 -125 -177q0 -115 16 -163q31 -90 117 -91q129 0 228.5 -89 t99.5 -216v-168q0 -127 -90 -217t-217 -90h-54q-127 0 -217 90t-90 217z" />
<glyph unicode="T" horiz-adv-x="708" d="M45 1331h625l2 -170h-209l2 -1161h-213l-2 1161h-203z" />
<glyph unicode="U" d="M59 1343h207v-1001q0 -172 133 -172q125 0 125 172v1001h203l2 -1056q0 -127 -90 -217t-217 -90h-53q-127 0 -217.5 90t-90.5 217z" />
<glyph unicode="V" horiz-adv-x="755" d="M39 1329h213l125 -901l131 901h213l-236 -1331l-219 2z" />
<glyph unicode="W" horiz-adv-x="1226" d="M39 1329h213l125 -901l131 901h217l125 -901l131 901h213l-236 -1331l-219 2l-125 729l-129 -731l-219 2z" />
<glyph unicode="X" horiz-adv-x="747" d="M43 1329h213l123 -360l123 360h213l-230 -676l226 -655l-219 2l-113 334l-113 -334l-221 -2l225 655z" />
<glyph unicode="Y" horiz-adv-x="745" d="M43 1329h213l125 -594l131 594h213l-242 -932q-6 -25 -6 -104q0 -49 3 -147.5t3 -145.5h-213l-2 307v86z" />
<glyph unicode="Z" horiz-adv-x="714" d="M41 170l418 991h-416l-2 170h625l2 -170l-416 -991h414l2 -170h-625z" />
<glyph unicode="[" horiz-adv-x="522" d="M39 1331l450 -2l-2 -192l-254 -2v-1250l254 -2l2 -188l-448 -2z" />
<glyph unicode="\" horiz-adv-x="628" d="M-2 1329l190 2l459 -1470h-192z" />
<glyph unicode="]" horiz-adv-x="595" d="M59 -305l2 188l254 2l2 1250l-256 2l-2 192l451 2v-4l-2 -1634z" />
<glyph unicode="^" horiz-adv-x="925" d="M35 674l317 655l219 -2l310 -653h-213l-207 450l-213 -450h-213z" />
<glyph unicode="_" horiz-adv-x="1159" d="M41 4h1030v-168h-1030v168z" />
<glyph unicode="`" horiz-adv-x="221" d="M-281 1718l254 2l265 -272h-172z" />
<glyph unicode="a" horiz-adv-x="808" d="M45 256q0 74 41 148.5t100 119.5q72 53 191 54q102 0 166 -29v55q0 172 -133 172q-57 0 -86 -31q-20 -23 -41 -86h-203q0 127 90 217.5t217 90.5h53q127 0 217.5 -90.5t90.5 -217.5v-659h-205v70q-4 -90 -176 -90q-119 0 -217 77q-104 84 -105 199zM240 276q0 -53 55 -88 q48 -32 101 -32h3q55 0 99.5 38t44.5 91q0 55 -44 94t-100 39q-55 0 -107 -44t-52 -98z" />
<glyph unicode="b" horiz-adv-x="774" d="M51 1327l213 2l-2 -420q45 57 156 58q127 0 217 -90.5t90 -217.5v-372q0 -143 -97.5 -225t-242.5 -82q-33 0 -76 25.5t-59 53.5v-59h-197zM266 291q0 -51 39 -86t90 -35q125 0 125 172v270q0 172 -133 172q-121 0 -121 -116v-377z" />
<glyph unicode="c" horiz-adv-x="745" d="M45 287v372q0 127 90 217.5t217 90.5h54q127 0 217 -90.5t90 -217.5v-108h-205q0 109 -16 154q-29 79 -115 79h-2q-125 0 -125 -172v-270q0 -172 133 -172q90 0 115 76q10 35 10 151h205v-110q0 -127 -90.5 -217t-216.5 -90h-54q-127 0 -217 90t-90 217z" />
<glyph unicode="d" d="M61 287v372q0 127 90.5 217.5t217.5 90.5h53q57 0 102 -58l-2 420l213 2l-2 -1331h-196v59q-40 -79 -165 -79h-3q-127 0 -217.5 90t-90.5 217zM266 342q0 -172 125 -172q51 0 90 35t39 86l2 377q0 116 -121 116h-2q-133 0 -133 -172v-270z" />
<glyph unicode="e" horiz-adv-x="768" d="M47 287v372q0 127 90 217.5t217 90.5h54q127 0 217 -90.5t90 -217.5v-282h-463v-35q0 -96 43 -135t141 -39q55 0 76 119h203q0 -127 -90 -217t-217 -90h-54q-127 0 -217 90t-90 217zM252 549l258 -2v65q0 172 -133 172q-125 0 -125 -172v-63z" />
<glyph unicode="f" horiz-adv-x="561" d="M51 754l2 182h101v113q0 129 112 223q109 88 240 88l-2 -201h-5q-142 0 -143 -223h150v-180h-150v-756h-200l-2 754h-103z" />
<glyph unicode="g" horiz-adv-x="813" d="M57 -35l213 4q-2 -168 138 -168q133 0 133 172q0 20 -9 72q-45 -57 -155 -57q-127 0 -217 90t-90 217v373q0 143 100 227q94 80 240 80q33 0 75.5 -25.5t59.5 -54.5v59l198 -2l2 -1026q0 -129 -114 -221q-106 -90 -238 -90q-129 0 -232.5 109.5t-103.5 240.5zM274 342 q0 -172 134 -172q82 0 110 74q17 47 17 145v70q-2 47 -3 71q0 133 -10 168q-25 86 -123 86q-125 0 -125 -172v-270z" />
<glyph unicode="h" horiz-adv-x="778" d="M53 1331l213 -2l-2 -420q45 57 176 58q125 0 206 -90.5t81 -217.5l-2 -659h-201l-2 612q0 172 -133 172q-123 0 -123 -116l4 -668h-215z" />
<glyph unicode="i" horiz-adv-x="346" d="M66 1331l213 -2l2 -225h-213zM68 0v983h213v-983h-213z" />
<glyph unicode="j" horiz-adv-x="481" d="M63 -391l3 201h4q141 0 141 157l2 1002h201l2 -1049q0 -129 -110.5 -220t-242.5 -91zM199 1331l213 -2l2 -225h-213z" />
<glyph unicode="k" horiz-adv-x="737" d="M39 1331l213 -2l2 -600l195 248h262l-385 -457l385 -520h-262l-195 287l2 -287h-215z" />
<glyph unicode="l" horiz-adv-x="354" d="M74 0l2 1331l213 -2l-2 -1329h-213z" />
<glyph unicode="m" horiz-adv-x="1253" d="M49 983l213 -2l-2 -51q47 57 176 57q49 0 114.5 -40t86.5 -83q35 45 104.5 84t122.5 39q129 0 229.5 -89t100.5 -218l-2 -680h-201l-2 633q0 172 -133 172q-55 0 -94 -40t-39 -95l-2 -670h-203l-2 670q0 57 -37 96t-94 39q-121 0 -121 -117l2 -688h-215z" />
<glyph unicode="n" horiz-adv-x="788" d="M53 983l213 -2l-2 -51q47 57 176 57q127 0 207 -89t80 -218l-2 -680h-201l-2 633q0 172 -133 172q-121 0 -121 -117l2 -688h-215z" />
<glyph unicode="o" horiz-adv-x="763" d="M49 287v372q0 127 90 217.5t217 90.5h54q127 0 217 -90.5t90 -217.5v-372q0 -127 -90 -217t-217 -90h-54q-127 0 -217 90t-90 217zM254 342q0 -172 133 -172q125 0 125 172v270q0 172 -133 172q-125 0 -125 -172v-270z" />
<glyph unicode="p" horiz-adv-x="790" d="M57 -377v1329l199 2v-59q41 80 168 80t217 -90t90 -217v-373q0 -127 -90 -217t-217 -90h-53q-57 0 -103 57l2 -420zM266 573q0 -18 2 -129q4 -168 6 -176q20 -98 119 -98q133 0 133 172v270q0 172 -125 172q-90 0 -118 -67q-16 -39 -17 -144z" />
<glyph unicode="q" horiz-adv-x="804" d="M61 295v373q0 143 101 227q94 80 239 80q33 0 76 -25.5t60 -54.5v59l198 -2v-1329l-213 2l2 420q-43 -57 -155 -57q-127 0 -217.5 90t-90.5 217zM266 342q0 -172 133 -172q129 0 129 186q0 29 -2 87.5t-2 86.5q0 133 -10 168q-25 86 -123 86q-125 0 -125 -172v-270z" />
<glyph unicode="r" horiz-adv-x="628" d="M16 983l213 -2l-2 -51q47 57 176 57q148 0 232 -117l-168 -135q-31 70 -115 70q-121 0 -121 -117l2 -688h-215z" />
<glyph unicode="s" horiz-adv-x="747" d="M43 659q0 127 90 217.5t217 90.5h53q117 0 204 -77t102 -192h-215q-27 86 -121 86q-51 0 -88 -31.5t-37 -82.5q0 -111 153 -111q131 0 220 -72q94 -77 94 -206q0 -127 -90 -217.5t-217 -90.5h-54q-117 0 -202.5 76t-102.5 191h215q29 -84 121 -84q49 0 87 33.5t38 80.5 q0 111 -154 111q-131 0 -219 74q-94 78 -94 204z" />
<glyph unicode="t" horiz-adv-x="571" d="M49 946h105l-4 180h204l2 -182h148v-180h-148v-537q0 -57 50 -71q17 -4 63 -5q15 0 33 1l2 -181q-352 0 -352 209v584h-101z" />
<glyph unicode="u" d="M59 301l2 680h201l2 -633q0 -172 133 -172q121 0 121 117l-2 688h215l2 -983l-213 2l2 51q-47 -57 -176 -57q-127 0 -207 89t-80 218z" />
<glyph unicode="v" horiz-adv-x="768" d="M45 981h213l125 -696l131 696h213l-235 -983l-220 2z" />
<glyph unicode="w" horiz-adv-x="1236" d="M39 981h213l125 -655l131 655h213l129 -655l131 655h213l-236 -983l-219 2l-123 539l-131 -541l-219 2z" />
<glyph unicode="x" horiz-adv-x="780" d="M47 0l209 471l-201 510h213l125 -369l131 369h213l-211 -512l203 -469h-213l-125 348l-131 -348h-213z" />
<glyph unicode="y" horiz-adv-x="768" d="M45 981h213l143 -664l113 664h213l-324 -1391l-178 2l84 408z" />
<glyph unicode="z" horiz-adv-x="757" d="M63 170l398 643h-395l-3 170h625l2 -170l-395 -643h393l2 -170h-624z" />
<glyph unicode="{" horiz-adv-x="643" d="M33 575l229 232h4v242q0 127 100.5 217t227.5 90l2 -182q-125 4 -125 -173v-194l-229 -232l229 -239v-281q0 -174 133 -172l2 -198q-127 0 -233.5 94t-106.5 221v338z" />
<glyph unicode="|" horiz-adv-x="339" d="M80 1331l172 -2l2 -1657h-172z" />
<glyph unicode="}" horiz-adv-x="641" d="M35 -315l2 198q133 -2 133 172v281l229 239l-229 232v194q0 176 -125 173l2 182q127 0 227.5 -90t100.5 -217v-242h4l229 -232l-233 -237v-338q0 -127 -106.5 -221t-233.5 -94z" />
<glyph unicode="~" horiz-adv-x="1161" d="M33 338q47 156 127 260q106 133 241 133q82 0 162 -65q4 -2 119 -119q63 -66 111 -66q59 0 145 242h170q-66 -174 -111 -248q-92 -147 -204 -147q-86 0 -168 65q-23 16 -121 119q-63 66 -103 66q-63 0 -116 -93q-6 -12 -68 -147h-184z" />
<glyph unicode="&#xa1;" horiz-adv-x="350" d="M68 713h213l2 -926l-213 2zM68 895v223h213v-223h-213z" />
<glyph unicode="&#xa2;" horiz-adv-x="757" d="M51 471v373q0 119 78 206t195 99v199l112 2v-199q119 -10 201 -99t82 -208v-109h-205q0 193 -78 223v-598q55 18 72 95q6 33 6 127h205v-111q0 -119 -82 -207t-201 -98l2 -166h-112l-2 166q-117 12 -195 100t-78 205zM256 526q0 -120 68 -157v589q-68 -27 -68 -161v-271z " />
<glyph unicode="&#xa3;" horiz-adv-x="796" d="M33 0v190h82l-2 369h-80v189h80q-2 201 -2 200q0 137 89 244.5t224 107.5h53q127 0 217 -90t90 -217v-108h-204q0 113 -15 155q-29 78 -119 78q-123 0 -122 -157v-213h268v-189h-266l2 -366l409 -3l-2 -190h-702z" />
<glyph unicode="&#xa5;" horiz-adv-x="735" d="M43 1329h213l125 -594l131 594h213q-244 -881 -242 -962h170v-107h-170v-98h170v-107h-170v-55h-213v55h-176l-2 107h178l-2 98h-174l-2 107h176q-2 39 -69 325q-39 166 -156 637z" />
<glyph unicode="&#xa6;" horiz-adv-x="335" d="M78 446h172l4 -774h-172zM78 594l2 737l172 -2l-2 -735h-172z" />
<glyph unicode="&#xa7;" horiz-adv-x="788" d="M57 614v476q0 127 90.5 217t217.5 90h53q127 0 217 -90t90 -217v-109h-205q0 109 -16 154q-29 80 -117 79q-129 0 -129 -190q0 -20 2 -63t2 -64q39 14 76 31q29 8 84 8q117 0 212 -95.5t95 -211.5v-475q0 -127 -90 -217.5t-217 -90.5h-53q-127 0 -217.5 90.5t-90.5 217.5 v108h205q0 -111 15 -153q29 -80 118 -80q129 0 129 190q0 20 -2 63.5t-2 63.5q-39 -14 -73.5 -26.5t-85.5 -12.5q-115 0 -211.5 96.5t-96.5 210.5zM266 612q0 -49 40 -81.5t89 -32.5q123 0 123 133q0 49 -39 81.5t-88 32.5q-125 0 -125 -133z" />
<glyph unicode="&#xa8;" horiz-adv-x="538" d="M-106 1454v227l212 -2v-225h-212zM365 1454v227l213 -2v-225h-213z" />
<glyph unicode="&#xa9;" horiz-adv-x="1230" d="M39 633q0 238 167 403.5t404 165.5q238 0 404 -165.5t166 -403.5t-166 -405t-404 -167t-404.5 167t-166.5 405zM135 629q0 -197 138.5 -334t334.5 -137q197 0 334 137t137 334t-137 335t-334 138t-335 -138.5t-138 -334.5zM403 389v488q0 96 70 149q61 47 162 47 q82 0 139 -57.5t57 -138.5v-136h-131q0 8 2 27v29q0 160 -88 159q-80 0 -79 -110v-422q0 -109 86 -109q84 0 84 131q0 18 -2.5 50t-2.5 43h131v-150q0 -96 -69 -149q-61 -47 -162 -47q-80 0 -138.5 58t-58.5 138z" />
<glyph unicode="&#xaa;" horiz-adv-x="630" d="M55 836q0 98 71 164.5t169 66.5q74 0 121 -20v40q0 123 -97 123q-66 0 -92 -84h-147q0 92 65.5 158t157.5 66h39q92 0 156.5 -65.5t64.5 -158.5v-477h-147v51q-4 -66 -127 -65q-86 0 -160 58.5t-74 142.5zM197 850q0 -39 36.5 -63.5t77.5 -24.5t73 27.5t32 66.5t-32 67.5 t-73 28.5q-39 0 -76.5 -31.5t-37.5 -70.5z" />
<glyph unicode="&#xab;" horiz-adv-x="948" d="M41 606q0 16 20 37l31 31l314 434q10 4 20 4q20 0 50 -21.5t30 -39.5t-21 -45q-29 -39 -30 -43l-183 -359l183 -358q2 -4 30 -43q21 -27 21 -45t-30 -40t-50 -22q-10 0 -20 4q-123 168 -365 506zM430 606q0 16 21 37q31 31 30 31l314 434q10 4 20 4q20 0 50 -21.5 t30 -39.5t-21 -45q-29 -39 -30 -43l-182 -359l182 -358q2 -4 30 -43q21 -27 21 -45t-29.5 -40t-50.5 -22q-10 0 -20 4q-123 168 -365 506z" />
<glyph unicode="&#xad;" horiz-adv-x="434" d="M59 436v189h314v-189h-314z" />
<glyph unicode="&#xae;" horiz-adv-x="880" d="M45 954q0 164 114.5 279t278.5 115t278.5 -115t114.5 -279t-114.5 -278.5t-278.5 -114.5t-278.5 115t-114.5 278zM129 952q0 -180 158 -268v537q-158 -88 -158 -269zM358 1249q115 0 158 -16q82 -29 82 -127v-98q0 -61 -47 -97q47 -33 55 -98v-4l-2 -25v-90 q139 92 139 258q0 127 -90 217.5t-217 90.5q-41 0 -78 -11zM373 651q31 -6 63 -6q33 0 66 6h-6v152q0 66 -82 65h-15v-217h-26zM399 967h50q40 0 40 59v66q0 59 -53 59h-37v-184z" />
<glyph unicode="&#xaf;" horiz-adv-x="430" d="M45 1460v148h416v-148h-416z" />
<glyph unicode="&#xb0;" horiz-adv-x="589" d="M68 877v245q0 104 71 162q63 51 172 51q88 0 149.5 -62.5t61.5 -150.5v-245q0 -104 -69.5 -158.5t-176.5 -54.5q-88 0 -148 62t-60 151zM221 913q0 -104 76 -104q72 0 72 104v179q0 104 -76 104q-72 0 -72 -104v-179z" />
<glyph unicode="&#xb1;" horiz-adv-x="872" d="M35 0v188h803v-188h-803zM35 641v188h307v318h188v-318h310v-188h-310v-299h-188v299h-307z" />
<glyph unicode="&#xb2;" horiz-adv-x="497" d="M47 774h8l219 350q25 39 25 70q0 53 -45 53q-47 0 -55 -63q-2 -49 -2 -99v-18h-140v129q0 86 64 135q55 43 145 43q70 0 120 -55t50 -125q0 -59 -39 -121l-186 -299h211l2 -121h-375q-2 96 -2 121z" />
<glyph unicode="&#xb3;" horiz-adv-x="514" d="M57 823v72h140q0 -125 57 -125q51 0 51 80q0 82 -15.5 95t-99.5 13v138q74 0 86 6q27 12 27 74q0 76 -51 75q-43 0 -53 -45q-4 -18 -2 -80h-140v74q0 88 62 135q55 43 145 43q74 0 126 -52t52 -126v-57q0 -70 -59 -117q61 -51 61 -113v-90q0 -88 -58 -134t-148 -46 q-74 0 -127.5 53.5t-53.5 126.5z" />
<glyph unicode="&#xb4;" horiz-adv-x="292" d="M-205 1448l264 272l254 -2l-346 -270h-172z" />
<glyph unicode="&#xb6;" horiz-adv-x="1081" d="M76 696v353q0 129 90 218t217 89l623 2v-1358h-193l2 1176h-90v-1176h-193v410h-188q-127 0 -197.5 78.5t-70.5 207.5zM281 752q0 -84 20 -121q29 -51 105 -51l126 2l3 594h-95q-102 0 -135 -41q-25 -33 -24 -134v-249z" />
<glyph unicode="&#xb7;" horiz-adv-x="344" d="M68 430v227l213 -2v-225h-213z" />
<glyph unicode="&#xb8;" horiz-adv-x="290" d="M12 -317q39 -12 76 -13q111 0 111 66q0 72 -170 69v195h98v-113q63 -8 119 -45q65 -43 65 -100q0 -82 -92 -123q-70 -31 -164 -31q-23 0 -43 2v93z" />
<glyph unicode="&#xb9;" horiz-adv-x="401" d="M63 1075v174l117 111l133 2l2 -709h-143v531z" />
<glyph unicode="&#xba;" horiz-adv-x="589" d="M68 877v245q0 104 71 162q63 51 172 51q88 0 149.5 -62.5t61.5 -150.5v-245q0 -104 -69.5 -158.5t-176.5 -54.5q-88 0 -148 62t-60 151zM221 913q0 -104 76 -104q72 0 72 104v179q0 104 -76 104q-72 0 -72 -104v-179z" />
<glyph unicode="&#xbb;" horiz-adv-x="950" d="M41 158q0 18 20 45q29 39 31 43l182 358l-182 359q-2 4 -31 43q-20 27 -20 45t29.5 39.5t50.5 21.5q10 0 20 -4l314 -434q12 -10 31.5 -30t19.5 -38q-125 -176 -365 -506q-10 -4 -20 -4q-20 0 -50 21.5t-30 40.5zM430 158q0 18 21 45q29 39 30 43l183 358l-183 359 q-2 4 -30 43q-20 27 -21 45q0 18 29.5 39.5t50.5 21.5q10 0 20 -4l314 -434q12 -10 31.5 -30t19.5 -38q-125 -176 -365 -506q-10 -4 -20 -4q-20 0 -50 21.5t-30 40.5z" />
<glyph unicode="&#xbc;" horiz-adv-x="1058" d="M49 1075v174l119 111l131 2l2 -709h-141l-2 531zM121 0l708 1331l172 -2l-708 -1329h-172zM604 285l254 426h156l-244 -414h78l-2 117l133 -2v-115h49l-2 -123l-45 2l-2 -176h-133l2 176h-242z" />
<glyph unicode="&#xbd;" horiz-adv-x="1101" d="M49 1075v174l117 111l133 2l2 -709h-143v531zM98 0l711 1331l170 -2l-709 -1329h-172zM678 121h8l219 350q25 39 25 70q0 53 -45 53q-49 0 -58 -72q-2 -10 0 -108h-139v127q0 88 62 137q57 43 147 43q68 0 118 -55t50 -125q0 -61 -37 -121l-186 -299h211v-121h-373 q-2 96 -2 121z" />
<glyph unicode="&#xbe;" horiz-adv-x="1067" d="M47 1085v74q0 86 64 135q55 43 145 43q74 0 126 -52t52 -126v-57q0 -70 -59 -117q61 -51 61 -113v-90q0 -86 -60.5 -133t-148.5 -47q-74 0 -126 53.5t-52 126.5v72h139q0 -125 56 -125q53 0 53 80q0 82 -15.5 95.5t-99.5 13.5l-2 137q76 0 88 6q27 12 27 74q0 76 -51 75 q-43 0 -54 -45q-4 -18 -4 -80h-139zM125 0l709 1331l172 -2l-709 -1329h-172zM608 285l256 426h154l-244 -414h78v117l133 -2v-115h47v-123l-47 2v-176h-135l2 176h-242z" />
<glyph unicode="&#xbf;" horiz-adv-x="722" d="M27 84v350q0 104 98 189.5t205 85.5h110v-205q-127 0 -159 -25q-41 -31 -50 -164v-184q0 -84 21 -121q29 -51 104 -51q88 0 117 80q16 47 16 154h205v-109q0 -127 -90 -217t-217 -90h-53q-127 0 -217 90t-90 217zM242 895v223h213v-223h-213z" />
<glyph unicode="&#xc0;" horiz-adv-x="784" d="M36 1718l254 2l265 -272h-172zM51 0l236 1331l219 -2l227 -1329h-213l-49 303h-156l-51 -303h-213zM352 516h86l-43 324z" />
<glyph unicode="&#xc1;" horiz-adv-x="784" d="M51 0l236 1331l219 -2l227 -1329h-213l-49 303h-156l-51 -303h-213zM252 1448l264 272l254 -2l-346 -270h-172zM352 516h86l-43 324z" />
<glyph unicode="&#xc2;" horiz-adv-x="784" d="M51 0l236 1331l219 -2l227 -1329h-213l-49 303h-156l-51 -303h-213zM137 1430l215 446l150 -2l211 -444h-146l-141 307l-143 -307h-146zM352 516h86l-43 324z" />
<glyph unicode="&#xc3;" horiz-adv-x="784" d="M51 0l236 1331l219 -2l227 -1329h-213l-49 303h-156l-51 -303h-213zM82 1450q78 252 238 252q66 0 145.5 -80t106.5 -80q39 0 94 156h108q-92 -254 -202 -254q-70 0 -151 80t-101 80q-41 0 -74 -60q-23 -47 -45 -94h-119zM352 516h86l-43 324z" />
<glyph unicode="&#xc4;" horiz-adv-x="765" d="M33 0l236 1331l219 -2l227 -1329h-213l-49 303h-156l-51 -303h-213zM52 1454v227l212 -2v-225h-212zM334 516h86l-43 324zM523 1454v227l213 -2v-225h-213z" />
<glyph unicode="&#xc5;" horiz-adv-x="784" d="M51 0l236 1331l219 -2l227 -1329h-213l-49 303h-156l-51 -303h-213zM189 1573v123q0 106 72 162q66 51 174 51q88 0 148.5 -62.5t60.5 -150.5v-123q0 -104 -69 -158.5t-175 -54.5q-88 0 -149.5 62.5t-61.5 150.5zM342 1610q0 -104 76 -105q72 1 72 105v55q0 104 -76 104 q-72 0 -72 -104v-55zM352 516h86l-43 324z" />
<glyph unicode="&#xc6;" horiz-adv-x="1169" d="M41 0l457 1331h632l-2 -190h-403l-2 -361l407 2l-2 -190h-407l2 -399l410 -3l-3 -190h-620v303h-154l-102 -303h-213zM428 516h80v270z" />
<glyph unicode="&#xc7;" horiz-adv-x="759" d="M49 287v762q0 127 90 217t217 90h54q127 0 217 -90t90 -217v-211h-205q0 18 2 60t2 63q0 213 -137 213q-125 0 -125 -173v-659q0 -172 133 -172q125 0 125 172v178h205v-233q0 -125 -87 -214t-212 -93v-93q63 -8 119 -45q66 -43 65 -100q0 -82 -92 -123q-70 -31 -164 -31 q-23 0 -43 2v93q39 -12 76 -13q111 0 110 66q0 72 -170 69v177q-117 14 -193.5 101t-76.5 204z" />
<glyph unicode="&#xc8;" horiz-adv-x="731" d="M45 1718l254 2l265 -272h-172zM53 1329l623 2l-2 -190h-404l-2 -361l408 2l-2 -190h-408l2 -399l410 -3l-2 -190h-621z" />
<glyph unicode="&#xc9;" horiz-adv-x="747" d="M51 1329l623 2l-2 -190h-404l-2 -361l408 2l-2 -190h-408l2 -399l410 -3l-2 -190h-621zM258 1448l264 272l254 -2l-346 -270h-172z" />
<glyph unicode="&#xca;" horiz-adv-x="745" d="M55 1329l623 2l-2 -190h-404l-2 -361l408 2l-2 -190h-408l2 -399l410 -3l-2 -190h-621zM65 1430l215 446l150 -2l211 -444h-146l-141 307l-143 -307h-146z" />
<glyph unicode="&#xcb;" horiz-adv-x="786" d="M41 1454v227l212 -2v-225h-212zM57 1329l623 2l-2 -190h-404l-2 -361l408 2l-2 -190h-408l2 -399l410 -3l-2 -190h-621zM512 1454v227l213 -2v-225h-213z" />
<glyph unicode="&#xcc;" horiz-adv-x="389" d="M-142 1718l254 2l265 -272h-172zM99 1331l213 -2l2 -1329h-213z" />
<glyph unicode="&#xcd;" horiz-adv-x="333" d="M20 1448l264 272l254 -2l-346 -270h-172zM45 1331l213 -2l2 -1329h-213z" />
<glyph unicode="&#xce;" horiz-adv-x="452" d="M-91 1430l215 446l150 -2l211 -444h-146l-141 307l-143 -307h-146zM111 1331l213 -2l2 -1329h-213z" />
<glyph unicode="&#xcf;" horiz-adv-x="376" d="M-178 1454v227l212 -2v-225h-212zM90 1331l213 -2l2 -1329h-213zM293 1454v227l213 -2v-225h-213z" />
<glyph unicode="&#xd0;" horiz-adv-x="851" d="M59 567v189h64v577l362 2q127 0 217.5 -90t90.5 -217v-741q0 -129 -71 -208t-198 -79h-401v567h-64zM330 172l133 -2q76 0 104 51q21 37 21 121v639q0 98 -25 133q-33 41 -133 41h-100v-399h104v-189h-104v-395z" />
<glyph unicode="&#xd1;" horiz-adv-x="770" d="M59 1329h213l226 -749l2 749h192l2 -1329h-217l-217 725l2 -725h-196zM70 1450q78 252 238 252q66 0 145.5 -80t106.5 -80q39 0 94 156h108q-92 -254 -202 -254q-70 0 -151 80t-101 80q-41 0 -74 -60q-23 -47 -45 -94h-119z" />
<glyph unicode="&#xd2;" horiz-adv-x="780" d="M18 1718l254 2l265 -272h-172zM55 287v762q0 127 90.5 217t217.5 90h53q127 0 217 -90t90 -217v-762q0 -127 -90 -217t-217 -90h-53q-127 0 -217.5 90t-90.5 217zM260 342q0 -172 133 -172q125 0 125 172v659q0 80 -16 117q-27 55 -96 56q-145 0 -146 -173v-659z" />
<glyph unicode="&#xd3;" horiz-adv-x="780" d="M55 287v762q0 127 90.5 217t217.5 90h53q127 0 217 -90t90 -217v-762q0 -127 -90 -217t-217 -90h-53q-127 0 -217.5 90t-90.5 217zM233 1448l264 272l254 -2l-346 -270h-172zM260 342q0 -172 133 -172q125 0 125 172v659q0 80 -16 117q-27 55 -96 56q-145 0 -146 -173 v-659z" />
<glyph unicode="&#xd4;" horiz-adv-x="780" d="M55 287v762q0 127 90.5 217t217.5 90h53q127 0 217 -90t90 -217v-762q0 -127 -90 -217t-217 -90h-53q-127 0 -217.5 90t-90.5 217zM118 1430l215 446l150 -2l211 -444h-146l-141 307l-143 -307h-146zM260 342q0 -172 133 -172q125 0 125 172v659q0 80 -16 117 q-27 55 -96 56q-145 0 -146 -173v-659z" />
<glyph unicode="&#xd5;" horiz-adv-x="786" d="M61 287v762q0 127 90.5 217t217.5 90h53q127 0 217 -90t90 -217v-762q0 -127 -90 -217t-217 -90h-53q-127 0 -217.5 90t-90.5 217zM70 1450q78 252 238 252q66 0 145.5 -80t106.5 -80q39 0 94 156h108q-92 -254 -202 -254q-70 0 -151 80t-101 80q-41 0 -74 -60 q-23 -47 -45 -94h-119zM266 342q0 -172 133 -172q125 0 125 172v659q0 80 -16 117q-27 55 -96 56q-145 0 -146 -173v-659z" />
<glyph unicode="&#xd6;" horiz-adv-x="770" d="M41 1454v227l212 -2v-225h-212zM45 287v762q0 127 90.5 217t217.5 90h53q127 0 217 -90t90 -217v-762q0 -127 -90 -217t-217 -90h-53q-127 0 -217.5 90t-90.5 217zM250 342q0 -172 133 -172q125 0 125 172v659q0 80 -16 117q-27 55 -96 56q-145 0 -146 -173v-659z M512 1454v227l213 -2v-225h-213z" />
<glyph unicode="&#xd7;" horiz-adv-x="825" d="M37 123l297 297l-297 295l76 76l295 -293l297 297l75 -76l-295 -301l297 -297l-75 -76l-297 299l-297 -297z" />
<glyph unicode="&#xd8;" horiz-adv-x="782" d="M45 -139l74 235q-66 84 -66 191v762q0 127 90 217t217 90h54q49 0 94 -15l39 125l192 -2l-75 -239q57 -78 57 -176v-762q0 -127 -90 -217t-217 -90h-54q-43 0 -81 10l-41 -129h-193zM258 541l195 624q-20 8 -50 9q-145 0 -145 -173v-460zM338 180q23 -10 53 -10 q125 0 125 172v410z" />
<glyph unicode="&#xd9;" d="M28 1718l254 2l265 -272h-172zM59 1343h207v-1001q0 -172 133 -172q125 0 125 172v1001h203l2 -1056q0 -127 -90 -217t-217 -90h-53q-127 0 -217.5 90t-90.5 217z" />
<glyph unicode="&#xda;" d="M59 1343h207v-1001q0 -172 133 -172q125 0 125 172v1001h203l2 -1056q0 -127 -90 -217t-217 -90h-53q-127 0 -217.5 90t-90.5 217zM244 1448l264 272l254 -2l-346 -270h-172z" />
<glyph unicode="&#xdb;" d="M59 1343h207v-1001q0 -172 133 -172q125 0 125 172v1001h203l2 -1056q0 -127 -90 -217t-217 -90h-53q-127 0 -217.5 90t-90.5 217zM129 1430l215 446l150 -2l211 -444h-146l-141 307l-143 -307h-146z" />
<glyph unicode="&#xdc;" horiz-adv-x="790" d="M47 1343h207v-1001q0 -172 133 -172q125 0 125 172v1001h203l2 -1056q0 -127 -90 -217t-217 -90h-53q-127 0 -217.5 90t-90.5 217zM50 1454v227l212 -2v-225h-212zM521 1454v227l213 -2v-225h-213z" />
<glyph unicode="&#xdd;" horiz-adv-x="770" d="M33 1329h213l125 -594l131 594h213l-242 -932q-6 -25 -6 -104q0 -49 3 -147.5t3 -145.5h-213l-2 307v86zM231 1448l264 272l254 -2l-346 -270h-172z" />
<glyph unicode="&#xde;" horiz-adv-x="755" d="M53 0v1354h213v-203h150q127 0 217 -90t90 -217v-352q0 -127 -71.5 -207t-196.5 -80h-189v-205h-213zM266 377q119 -2 127 -2q76 0 105 51q20 39 20 121v250q0 102 -31.5 138t-130.5 36h-90v-594z" />
<glyph unicode="&#xdf;" horiz-adv-x="784" d="M57 -287v1620l363 2q127 0 217 -90t90 -217v-168q0 -53 -33 -119q-35 -72 -80 -90q47 -20 80 -80.5t33 -115.5v-168q0 -129 -70.5 -208t-197.5 -79h-60l-2 170q127 0 127 174q0 221 -94 223v178q92 18 92 173q0 141 -12 172q-29 66 -148 65h-98v-1442h-207z" />
<glyph unicode="&#xe0;" horiz-adv-x="786" d="M31 256q0 74 41 148.5t100 119.5q72 53 191 54q102 0 166 -29v55q0 172 -133 172q-57 0 -86 -31q-20 -23 -41 -86h-203q0 127 90 217.5t217 90.5h53q127 0 217.5 -90.5t90.5 -217.5v-659h-205v70q-4 -90 -176 -90q-119 0 -217 77q-104 84 -105 199zM84 1382l254 2 l265 -272h-172zM226 276q0 -53 55 -88q49 -33 104 -32q55 0 99.5 38t44.5 91q0 55 -44 94t-100 39q-55 0 -107 -44t-52 -98z" />
<glyph unicode="&#xe1;" horiz-adv-x="782" d="M35 256q0 74 41 148.5t100 119.5q72 53 191 54q102 0 166 -29v55q0 172 -133 172q-57 0 -86 -31q-20 -23 -41 -86h-203q0 127 90 217.5t217 90.5h53q127 0 217.5 -90.5t90.5 -217.5v-659h-205v70q-4 -90 -176 -90q-119 0 -217 77q-104 84 -105 199zM221 1112l264 272 l254 -2l-346 -270h-172zM230 276q0 -53 55 -88q49 -33 104 -32q55 0 99.5 38t44.5 91q0 55 -44 94t-100 39q-55 0 -107 -44t-52 -98z" />
<glyph unicode="&#xe2;" horiz-adv-x="780" d="M31 256q0 74 41 148.5t100 119.5q72 53 191 54q102 0 166 -29v55q0 172 -133 172q-57 0 -86 -31q-20 -23 -41 -86h-203q0 127 90 217.5t217 90.5h53q127 0 217.5 -90.5t90.5 -217.5v-659h-205v70q-4 -90 -176 -90q-119 0 -217 77q-104 84 -105 199zM122 1094l215 446 l150 -2l211 -444h-146l-141 307l-143 -307h-146zM226 276q0 -53 55 -88q49 -33 104 -32q55 0 99.5 38t44.5 91q0 55 -44 94t-100 39q-55 0 -107 -44t-52 -98z" />
<glyph unicode="&#xe3;" horiz-adv-x="794" d="M27 256q0 74 41 148.5t100 119.5q72 53 191 54q102 0 166 -29v55q0 172 -133 172q-57 0 -86 -31q-20 -23 -41 -86h-203q0 127 90 217.5t217 90.5h53q127 0 217.5 -90.5t90.5 -217.5v-659h-205v70q-4 -90 -176 -90q-119 0 -217 77q-104 84 -105 199zM63 1114 q78 252 238 252q66 0 145.5 -80t106.5 -80q39 0 94 156h108q-92 -254 -202 -254q-70 0 -151 80t-101 80q-41 0 -74 -60q-23 -47 -45 -94h-119zM222 276q0 -53 55 -88q49 -33 104 -32q55 0 99.5 38t44.5 91q0 55 -44 94t-100 39q-55 0 -107 -44t-52 -98z" />
<glyph unicode="&#xe4;" horiz-adv-x="780" d="M14 256q0 74 41 148.5t100 119.5q72 53 191 54q102 0 166 -29v55q0 172 -133 172q-57 0 -86 -31q-20 -23 -41 -86h-203q0 127 90 217.5t217 90.5h53q127 0 217.5 -90.5t90.5 -217.5v-659h-205v70q-4 -90 -176 -90q-119 0 -217 77q-104 84 -105 199zM39 1118v227l212 -2 v-225h-212zM209 276q0 -53 55 -88q49 -33 104 -32q55 0 99.5 38t44.5 91q0 55 -44 94t-100 39q-55 0 -107 -44t-52 -98zM510 1118v227l213 -2v-225h-213z" />
<glyph unicode="&#xe5;" horiz-adv-x="808" d="M43 256q0 74 41 148.5t100 119.5q72 53 191 54q102 0 166 -29v55q0 172 -133 172q-57 0 -86 -31q-20 -23 -41 -86h-203q0 127 90 217.5t217 90.5h53q127 0 217.5 -90.5t90.5 -217.5v-659h-205v70q-4 -90 -176 -90q-119 0 -217 77q-104 84 -105 199zM170 1159v123 q0 106 72 162q66 51 174 51q88 0 148.5 -62.5t60.5 -150.5v-123q0 -104 -69 -158.5t-175 -54.5q-88 0 -149.5 62.5t-61.5 150.5zM238 276q0 -53 55 -88q49 -33 104 -32q55 0 99.5 38t44.5 91q0 55 -44 94t-100 39q-55 0 -107 -44t-52 -98zM323 1196q0 -104 76 -105 q72 1 72 105v55q0 104 -76 104q-72 0 -72 -104v-55z" />
<glyph unicode="&#xe6;" horiz-adv-x="1265" d="M43 256q0 135 97.5 228.5t234.5 93.5q98 0 164 -27v106q0 49 -40 84t-89 35q-59 0 -88 -31q-20 -23 -39 -86h-203q0 127 90 217.5t217 90.5h53q51 0 114.5 -37t88.5 -80q18 43 86 80t117 37h53q127 0 217 -90.5t90 -217.5v-282h-458v-92q0 -117 180 -117q51 0 76 119h202 q0 -127 -90 -217t-217 -90h-53q-57 0 -111 20h-192v70q-4 -90 -176 -90q-119 0 -217 77q-106 82 -107 199zM240 276q0 -53 55 -88q49 -33 104 -32q51 0 95.5 35.5t44.5 84.5v39q0 37 -50.5 70t-89.5 33q-55 0 -107 -43t-52 -99zM745 676l3 -127l253 -2v65q0 172 -133 172 q-123 0 -123 -108z" />
<glyph unicode="&#xe7;" horiz-adv-x="774" d="M51 287v372q0 127 90 217.5t217 90.5h54q127 0 217 -90.5t90 -217.5v-108h-205q0 111 -14 154q-29 80 -119 79q-125 0 -125 -172v-270q0 -172 133 -172q90 0 115 76q12 39 10 151h205v-110q0 -125 -87 -214t-212 -93v-93q63 -8 119 -45q66 -43 65 -100q0 -82 -92 -123 q-70 -31 -164 -31q-23 0 -43 2v93q39 -12 76 -13q111 0 111 66q0 72 -170 69v177q-117 14 -194 101t-77 204z" />
<glyph unicode="&#xe8;" horiz-adv-x="737" d="M24 287v372q0 127 90 217.5t217 90.5h54q127 0 217 -90.5t90 -217.5v-282h-463v-35q0 -96 43 -135t141 -39q55 0 76 119h203q0 -127 -90 -217t-217 -90h-54q-127 0 -217 90t-90 217zM65 1382l254 2l265 -272h-172zM229 549l258 -2v65q0 172 -133 172q-125 0 -125 -172 v-63z" />
<glyph unicode="&#xe9;" horiz-adv-x="741" d="M24 287v372q0 127 90 217.5t217 90.5h54q127 0 217 -90.5t90 -217.5v-282h-463v-35q0 -96 43 -135t141 -39q55 0 76 119h203q0 -127 -90 -217t-217 -90h-54q-127 0 -217 90t-90 217zM219 1112l264 272l254 -2l-346 -270h-172zM229 549l258 -2v65q0 172 -133 172 q-125 0 -125 -172v-63z" />
<glyph unicode="&#xea;" horiz-adv-x="743" d="M27 287v372q0 127 90 217.5t217 90.5h54q127 0 217 -90.5t90 -217.5v-282h-463v-35q0 -96 43 -135t141 -39q55 0 76 119h203q0 -127 -90 -217t-217 -90h-54q-127 0 -217 90t-90 217zM127 1094l215 446l150 -2l211 -444h-146l-141 307l-143 -307h-146zM232 549l258 -2v65 q0 172 -133 172q-125 0 -125 -172v-63z" />
<glyph unicode="&#xeb;" horiz-adv-x="768" d="M47 287v372q0 127 90 217.5t217 90.5h54q127 0 217 -90.5t90 -217.5v-282h-463v-35q0 -96 43 -135t141 -39q55 0 76 119h203q0 -127 -90 -217t-217 -90h-54q-127 0 -217 90t-90 217zM60 1118v227l212 -2v-225h-212zM252 549l258 -2v65q0 172 -133 172q-125 0 -125 -172 v-63zM531 1118v227l213 -2v-225h-213z" />
<glyph unicode="&#xec;" horiz-adv-x="346" d="M-185 1382l254 2l265 -272h-172zM53 983h213l3 -983h-213z" />
<glyph unicode="&#xed;" horiz-adv-x="352" d="M-15 1112l264 272l254 -2l-346 -270h-172zM69 983h213l3 -983h-213z" />
<glyph unicode="&#xee;" horiz-adv-x="370" d="M-103 1094l215 446l150 -2l211 -444h-146l-141 307l-143 -307h-146zM75 983h213l3 -983h-213z" />
<glyph unicode="&#xef;" horiz-adv-x="387" d="M-165 1118v227l212 -2v-225h-212zM79 983h213l3 -983h-213zM306 1118v227l213 -2v-225h-213z" />
<glyph unicode="&#xf0;" horiz-adv-x="862" d="M41 287v229q0 143 100 227q94 80 240 80q80 0 119 -37v107l-125 -23l-29 187l119 22q-31 35 -90 33l-31 182h53q88 0 164 -48t113 -128l108 21l31 -187l-108 -20l4 -645q0 -127 -90.5 -217t-217.5 -90h-53q-127 0 -217 90t-90 217zM246 342q0 -172 125 -172 q133 0 133 172v127q0 25 -2 45h-4q0 127 -119 127q-133 0 -133 -172v-127z" />
<glyph unicode="&#xf1;" horiz-adv-x="796" d="M37 983l213 -2l-2 -51q47 57 176 57q127 0 207 -89t80 -218l-2 -680h-201l-2 633q0 172 -133 172q-121 0 -121 -117l2 -688h-215zM57 1114q78 252 238 252q66 0 145.5 -80t106.5 -80q39 0 94 156h108q-92 -254 -202 -254q-70 0 -151 80t-101 80q-41 0 -74 -60 q-23 -47 -45 -94h-119z" />
<glyph unicode="&#xf2;" horiz-adv-x="753" d="M35 287v372q0 127 90 217.5t217 90.5h54q127 0 217 -90.5t90 -217.5v-372q0 -127 -90 -217t-217 -90h-54q-127 0 -217 90t-90 217zM55 1382l254 2l265 -272h-172zM240 342q0 -172 133 -172q125 0 125 172v270q0 172 -133 172q-125 0 -125 -172v-270z" />
<glyph unicode="&#xf3;" horiz-adv-x="755" d="M33 287v372q0 127 90 217.5t217 90.5h54q127 0 217 -90.5t90 -217.5v-372q0 -127 -90 -217t-217 -90h-54q-127 0 -217 90t-90 217zM227 1112l264 272l254 -2l-346 -270h-172zM238 342q0 -172 133 -172q125 0 125 172v270q0 172 -133 172q-125 0 -125 -172v-270z" />
<glyph unicode="&#xf4;" horiz-adv-x="749" d="M35 287v372q0 127 90 217.5t217 90.5h54q127 0 217 -90.5t90 -217.5v-372q0 -127 -90 -217t-217 -90h-54q-127 0 -217 90t-90 217zM114 1094l215 446l150 -2l211 -444h-146l-141 307l-143 -307h-146zM240 342q0 -172 133 -172q125 0 125 172v270q0 172 -133 172 q-125 0 -125 -172v-270z" />
<glyph unicode="&#xf5;" horiz-adv-x="786" d="M37 287v372q0 127 90 217.5t217 90.5h54q127 0 217 -90.5t90 -217.5v-372q0 -127 -90 -217t-217 -90h-54q-127 0 -217 90t-90 217zM61 1114q78 252 238 252q66 0 145.5 -80t106.5 -80q39 0 94 156h108q-92 -254 -202 -254q-70 0 -151 80t-101 80q-41 0 -74 -60 q-23 -47 -45 -94h-119zM242 342q0 -172 133 -172q125 0 125 172v270q0 172 -133 172q-125 0 -125 -172v-270z" />
<glyph unicode="&#xf6;" horiz-adv-x="774" d="M29 287v372q0 127 90 217.5t217 90.5h54q127 0 217 -90.5t90 -217.5v-372q0 -127 -90 -217t-217 -90h-54q-127 0 -217 90t-90 217zM41 1118v227l212 -2v-225h-212zM234 342q0 -172 133 -172q125 0 125 172v270q0 172 -133 172q-125 0 -125 -172v-270zM512 1118v227 l213 -2v-225h-213z" />
<glyph unicode="&#xf7;" horiz-adv-x="817" d="M18 430v168h803v-168h-803zM317 0v227l213 -2v-225h-213zM317 799v227l213 -2v-225h-213z" />
<glyph unicode="&#xf8;" horiz-adv-x="782" d="M53 287v372q0 147 105 232q96 78 241 78q35 0 72 -6l59 170l191 -3l-88 -256q88 -88 88 -215v-372q0 -143 -103 -230q-94 -80 -235 -80q-31 0 -61 5l-43 -121h-193l70 198q-102 90 -103 228zM258 354l150 428q-10 2 -25 2q-125 0 -125 -172v-258zM387 170h4q78 0 107 51 q18 35 18 121v201z" />
<glyph unicode="&#xf9;" horiz-adv-x="776" d="M49 301l2 680h201l2 -633q0 -172 133 -172q121 0 121 117l-2 688h215l2 -983l-213 2l2 51q-47 -57 -176 -57q-127 0 -207 89t-80 218zM57 1382l254 2l265 -272h-172z" />
<glyph unicode="&#xfa;" horiz-adv-x="761" d="M30 301l2 680h201l2 -633q0 -172 133 -172q121 0 121 117l-2 688h215l2 -983l-213 2l2 51q-47 -57 -176 -57q-127 0 -207 89t-80 218zM192 1112l264 272l254 -2l-346 -270h-172z" />
<glyph unicode="&#xfb;" horiz-adv-x="782" d="M49 301l2 680h201l2 -633q0 -172 133 -172q121 0 121 117l-2 688h215l2 -983l-213 2l2 51q-47 -57 -176 -57q-127 0 -207 89t-80 218zM116 1094l215 446l150 -2l211 -444h-146l-141 307l-143 -307h-146z" />
<glyph unicode="&#xfc;" horiz-adv-x="800" d="M46 1118v227l212 -2v-225h-212zM65 301l2 680h201l2 -633q0 -172 133 -172q121 0 121 117l-2 688h215l2 -983l-213 2l2 51q-47 -57 -176 -57q-127 0 -207 89t-80 218zM517 1118v227l213 -2v-225h-213z" />
<glyph unicode="&#xfd;" horiz-adv-x="770" d="M33 981h213l143 -664l113 664h213l-324 -1391l-178 2l84 408zM272 1112l264 272l254 -2l-346 -270h-172z" />
<glyph unicode="&#xfe;" horiz-adv-x="774" d="M51 -377v1712l203 2l2 -434q45 72 162 72q127 0 217 -90t90 -217v-373q0 -127 -90 -217t-217 -90h-53q-55 0 -103 57l2 -420zM262 424q0 -129 8 -164q25 -90 117 -90q133 0 133 172v270q0 172 -125 172q-98 0 -123 -86q-10 -35 -10 -168v-106z" />
<glyph unicode="&#xff;" horiz-adv-x="774" d="M25 981h213l143 -664l113 664h213l-324 -1391l-178 2l84 408zM41 1118v227l212 -2v-225h-212zM512 1118v227l213 -2v-225h-213z" />
<glyph unicode="&#x178;" horiz-adv-x="724" d="M20 1329h213l125 -594l131 594h213l-242 -932q-6 -25 -6 -104q0 -49 3 -147.5t3 -145.5h-213l-2 307v86zM37 1454v227l212 -2v-225h-212zM508 1454v227l213 -2v-225h-213z" />
<glyph unicode="&#x2c6;" horiz-adv-x="473" d="M-68 1430l215 446l150 -2l211 -444h-146l-141 307l-143 -307h-146z" />
<glyph unicode="&#x2dc;" horiz-adv-x="571" d="M-80 1450q78 252 238 252q66 0 145.5 -80t106.5 -80q39 0 94 156h108q-92 -254 -202 -254q-70 0 -151 80t-101 80q-41 0 -74 -60q-23 -47 -45 -94h-119z" />
<glyph unicode="&#x2000;" horiz-adv-x="954" />
<glyph unicode="&#x2001;" horiz-adv-x="1909" />
<glyph unicode="&#x2002;" horiz-adv-x="954" />
<glyph unicode="&#x2003;" horiz-adv-x="1909" />
<glyph unicode="&#x2004;" horiz-adv-x="636" />
<glyph unicode="&#x2005;" horiz-adv-x="477" />
<glyph unicode="&#x2006;" horiz-adv-x="318" />
<glyph unicode="&#x2007;" horiz-adv-x="318" />
<glyph unicode="&#x2008;" horiz-adv-x="238" />
<glyph unicode="&#x2009;" horiz-adv-x="381" />
<glyph unicode="&#x200a;" horiz-adv-x="106" />
<glyph unicode="&#x2010;" horiz-adv-x="434" d="M59 436v189h314v-189h-314z" />
<glyph unicode="&#x2011;" horiz-adv-x="434" d="M59 436v189h314v-189h-314z" />
<glyph unicode="&#x2012;" horiz-adv-x="434" d="M59 436v189h314v-189h-314z" />
<glyph unicode="&#x2013;" horiz-adv-x="776" d="M66 616v127l636 -2v-127z" />
<glyph unicode="&#x2014;" horiz-adv-x="1130" d="M66 612v107h993v-107h-993z" />
<glyph unicode="&#x2018;" horiz-adv-x="405" d="M33 797l82 534l233 -2l-164 -532h-151z" />
<glyph unicode="&#x2019;" horiz-adv-x="407" d="M35 797l82 534l233 -2l-164 -532h-151z" />
<glyph unicode="&#x201a;" horiz-adv-x="436" d="M53 -307l82 534l234 -2l-164 -532h-152z" />
<glyph unicode="&#x201c;" horiz-adv-x="694" d="M37 797l80 534l233 -2l-162 -532h-151zM324 797l79 534l234 -2l-162 -532h-151z" />
<glyph unicode="&#x201d;" horiz-adv-x="694" d="M37 797l80 534l233 -2l-162 -532h-151zM324 797l79 534l234 -2l-162 -532h-151z" />
<glyph unicode="&#x201e;" horiz-adv-x="710" d="M41 -307l82 534l233 -2l-163 -532h-152zM328 -307l82 534l233 -2l-164 -532h-151z" />
<glyph unicode="&#x2022;" horiz-adv-x="706" d="M80 248v590l551 -7l2 -583h-553z" />
<glyph unicode="&#x2026;" horiz-adv-x="1230" d="M70 0v227l213 -2v-225h-213zM506 227l213 -2l2 -225h-213zM932 227l213 -2l2 -225h-213z" />
<glyph unicode="&#x202f;" horiz-adv-x="381" />
<glyph unicode="&#x2039;" horiz-adv-x="563" d="M43 606q0 16 20 37l31 31l314 434q10 4 20 4q20 0 50 -21.5t30 -39.5q0 -23 -21 -47q-29 -35 -30 -41l-183 -359l183 -358q2 -6 30 -41q21 -24 21 -47q0 -18 -29.5 -40t-50.5 -22q-10 0 -20 4q-123 168 -365 506z" />
<glyph unicode="&#x203a;" horiz-adv-x="565" d="M45 158q0 18 21 45q29 39 30 43l183 358l-183 359q-2 4 -30 43q-20 27 -21 45q0 18 29.5 39.5t50.5 21.5q10 0 20 -4l314 -434l30 -31q21 -21 21 -37q-125 -176 -365 -506q-10 -4 -20 -4q-20 0 -50 21.5t-30 40.5z" />
<glyph unicode="&#x205f;" horiz-adv-x="477" />
<glyph unicode="&#x20ac;" horiz-adv-x="854" d="M49 879h86v170q0 127 90 217t217 90h54q127 0 217 -90t90 -217v-211h-205q0 18 2 60t2 63q0 213 -137 213q-129 0 -129 -185q0 -18 2 -56t2 -54h168v-189h-168v-119h94v-188h-94v-41q0 -172 133 -172q125 0 125 172v178h205v-233q0 -127 -90 -217t-217 -90h-54 q-127 0 -217 90t-90 217v96h-76l-2 188h78v119h-84z" />
<glyph unicode="&#x2122;" horiz-adv-x="1107" d="M51 1210v113h365v-113h-115l2 -639h-139v639h-113zM469 571v750h143l142 -492l135 492h147v-750h-137v308l-84 -308h-133l-76 308v-308h-137z" />
<glyph unicode="&#xe000;" horiz-adv-x="983" d="M0 0v983h983v-983h-983z" />
</font>
</defs>
</svg>
